normalP062_grf.mot
version=1
nRows=22
nColumns=19
inDegrees=yes
endheader
time	1_ground_force_vx	1_ground_force_vy	1_ground_force_vz	1_ground_force_px	1_ground_force_py	1_ground_force_pz	1_ground_torque_x	1_ground_torque_y	1_ground_torque_z	2_ground_force_vx	2_ground_force_vy	2_ground_force_vz	2_ground_force_px	2_ground_force_py	2_ground_force_pz	2_ground_torque_x	2_ground_torque_y	2_ground_torque_z
            1.470000	          -91.677186	          613.085609	           -9.679461	            0.376913	            0.002324	           -0.169064	            0.158269	           -1.058416	            0.016710	            0.052777	            0.559897	           -0.014369	            0.905498	            0.001140	           -0.250018	            0.051234	           -0.004655	           -0.003601
            1.471000	          -91.060732	          614.359202	           -9.821052	            0.376818	            0.002325	           -0.169116	            0.162133	           -1.093860	            0.017486	            0.021325	            0.159956	           -0.046960	            0.905498	            0.001140	           -0.250018	            0.000655	            0.007320	            0.017360
            1.472000	          -90.438550	          615.070719	           -9.933622	            0.377503	            0.002322	           -0.169070	            0.164879	           -1.121338	            0.018110	           -0.001708	            0.159116	           -0.031637	            0.905498	            0.001140	           -0.250018	           -0.099941	            0.005942	            0.016926
            1.473000	          -89.685551	          616.026278	           -9.991880	            0.377246	            0.002323	           -0.168872	            0.163304	           -1.121693	            0.018194	           -0.002624	           -0.238169	           -0.002973	            0.905498	            0.001140	           -0.250018	            0.151921	           -0.002834	           -0.086403
            1.474000	          -89.020399	          618.018803	          -10.077583	            0.377093	            0.002324	           -0.169046	            0.166464	           -1.155670	            0.018845	            0.005815	            0.079981	           -0.039884	            0.905498	            0.001140	           -0.250018	           -0.016131	           -0.009747	           -0.003552
            1.475000	          -88.277836	          618.252722	          -10.084489	            0.377365	            0.002323	           -0.169048	            0.168078	           -1.177135	            0.019201	           -0.026078	           -0.479353	           -0.034998	            0.905498	            0.001140	           -0.250018	           -0.032874	           -0.004955	           -0.065917
            1.476000	          -87.424536	          619.446211	          -10.203327	            0.377179	            0.002323	           -0.169009	            0.171210	           -1.213107	            0.019982	            0.005405	           -0.080177	           -0.017568	            0.905498	            0.001140	           -0.250018	           -0.016100	           -0.001486	            0.037819
            1.477000	          -86.672381	          620.158848	          -10.147416	            0.377457	            0.002322	           -0.169022	            0.170909	           -1.222887	            0.020010	           -0.002418	           -0.158903	           -0.025516	            0.905498	            0.001140	           -0.250018	            0.068026	            0.010437	           -0.065796
            1.478000	          -85.797206	          621.033576	          -10.152317	            0.377379	            0.002322	           -0.168998	            0.172927	           -1.251713	            0.020462	            0.013783	            0.239743	           -0.039148	            0.905498	            0.001140	           -0.250018	           -0.049421	           -0.002201	           -0.045412
            1.479000	          -84.951006	          622.386988	          -10.239959	            0.377174	            0.002323	           -0.168880	            0.171554	           -1.256881	            0.020679	           -0.010545	           -0.398918	           -0.042181	            0.905498	            0.001140	           -0.250018	            0.017462	           -0.002196	           -0.086426
            1.480000	          -84.045913	          623.100021	          -10.168714	            0.377251	            0.002323	           -0.169053	            0.172505	           -1.278919	            0.020871	           -0.024987	            0.079822	            0.006288	            0.905498	            0.001140	           -0.250018	           -0.016093	            0.007957	           -0.003466
            1.481000	          -83.156649	          623.654374	          -10.197576	            0.377413	            0.002322	           -0.168881	            0.173756	           -1.303129	            0.021308	           -0.056415	           -0.319193	           -0.026517	            0.905498	            0.001140	           -0.250018	            0.000760	           -0.002239	           -0.065881
            1.482000	          -82.328622	          624.209729	          -10.165045	            0.377376	            0.002322	           -0.168824	            0.170678	           -1.294067	            0.021073	           -0.001510	            0.239774	           -0.039016	            0.905498	            0.001140	           -0.250018	           -0.049502	           -0.003087	           -0.045275
            1.483000	          -81.383743	          625.323098	          -10.130943	            0.377236	            0.002322	           -0.168805	            0.172146	           -1.322706	            0.021429	           -0.010386	           -0.318559	           -0.026416	            0.905498	            0.001140	           -0.250018	            0.067938	           -0.008628	           -0.107262
            1.484000	          -80.436140	          625.158964	          -10.146655	            0.377322	            0.002322	           -0.168837	            0.173241	           -1.346445	            0.021854	            0.005808	            0.079756	           -0.032005	            0.905498	            0.001140	           -0.250018	           -0.016078	            0.000832	            0.037852
            1.485000	          -79.614620	          626.031043	          -10.113254	            0.377643	            0.002321	           -0.168922	            0.173978	           -1.368033	            0.022100	            0.004997	           -0.319317	           -0.049259	            0.905498	            0.001140	           -0.250018	            0.034208	            0.004809	            0.017283
            1.486000	          -78.719002	          626.267012	          -10.051157	            0.377646	            0.002321	           -0.168822	            0.172258	           -1.370434	            0.021995	            0.043674	           -0.159669	           -0.056229	            0.905498	            0.001140	           -0.250018	           -0.032749	            0.000177	           -0.065990
            1.487000	          -77.778114	          626.345187	          -10.073752	            0.377403	            0.002322	           -0.168754	            0.171085	           -1.377740	            0.022159	            0.029157	            0.240384	           -0.031177	            0.905498	            0.001140	           -0.250018	            0.084689	           -0.000996	            0.038009
            1.488000	          -76.866336	          626.817779	          -10.026242	            0.377542	            0.002322	           -0.169026	            0.173019	           -1.410910	            0.022568	           -0.024186	            0.399927	           -0.015198	            0.905498	            0.001140	           -0.250018	            0.017589	           -0.012679	           -0.003663
            1.489000	          -75.987331	          626.736089	          -10.018683	            0.377519	            0.002321	           -0.168730	            0.167936	           -1.385119	            0.022142	            0.019957	           -0.478318	           -0.027014	            0.905498	            0.001140	           -0.250018	            0.134814	           -0.004403	           -0.023850
            1.490000	          -75.027231	          627.847871	          -10.038150	            0.377511	            0.002322	           -0.168871	            0.169805	           -1.420970	            0.022719	            0.036147	           -0.079944	           -0.040483	            0.905498	            0.001140	           -0.250018	           -0.016131	           -0.001756	           -0.003535
            1.491000	          -74.184719	          626.169941	           -9.859441	            0.377489	            0.002321	           -0.168791	            0.168118	           -1.419029	            0.022344	            0.021018	           -0.000257	           -0.047736	            0.905498	            0.001140	           -0.250018	           -0.066316	           -0.001996	           -0.024627
